<svg class="hex-icon" width="45" height="57" viewBox="0 0 48 57" fill="none" xmlns="http://www.w3.org/2000/svg">
    <path d="M3.41635 14.3273L24.5 2.1547L45.5836 14.3273V38.6726L24.5 50.8453L3.41635 38.6726V14.3273Z"  stroke-width="2"/>
<path d="M17.5 39C18.2956 39 19.0587 38.6839 19.6213 38.1213C20.1839 37.5587 20.5 36.7956 20.5 36V30"  stroke-width="2" stroke-linecap="round" stroke-linejoin="round"/>
<path d="M28.5 39C27.7044 39 26.9413 38.6839 26.3787 38.1213C25.8161 37.5587 25.5 36.7956 25.5 36V30"  stroke-width="2" stroke-linecap="round" stroke-linejoin="round"/>
<path d="M26 30H28C28.7956 30 29.5587 30.3161 30.1213 30.8787C30.6839 31.4413 31 32.2044 31 33V34C31 34.7956 31.3161 35.5587 31.8787 36.1213C32.4413 36.6839 33.2044 37 34 37"  stroke-width="2" stroke-linecap="round" stroke-linejoin="round"/>
<path d="M20 30H18C17.2044 30 16.4413 30.3161 15.8787 30.8787C15.3161 31.4413 15 32.2044 15 33V34C15 34.7956 14.6839 35.5587 14.1213 36.1213C13.5587 36.6839 12.7956 37 12 37"  stroke-width="2" stroke-linecap="round" stroke-linejoin="round"/>
<path d="M15.064 19.588C14.7143 18.6832 14.5719 17.7115 14.6474 16.7445C14.7228 15.7774 15.0142 14.8396 15.5 14C16.5916 13.9994 17.6658 14.2739 18.6233 14.7982C19.5808 15.3226 20.3907 16.0798 20.9781 16.9999V17H25.0219V16.9999C25.6094 16.0798 26.4192 15.3226 27.3767 14.7982C28.3342 14.2739 29.4084 13.9994 30.5 14C30.9858 14.8396 31.2772 15.7774 31.3526 16.7445C31.4281 17.7115 31.2857 18.6832 30.9361 19.588V19.588C31.6307 20.59 32.002 21.7807 32 23V24C32 25.5913 31.3679 27.1174 30.2426 28.2426C29.1174 29.3679 27.5913 30 26 30H20C18.4087 30 16.8826 29.3679 15.7574 28.2426C14.6321 27.1174 14 25.5913 14 24V23C13.9981 21.7807 14.3693 20.59 15.064 19.588L15.064 19.588Z"  stroke-width="2" stroke-linecap="round" stroke-linejoin="round"/>
</svg>
