<svg class="hex-icon--inactive" width="45" height="57" viewBox="0 0 48 57" fill="none" xmlns="http://www.w3.org/2000/svg">
<g filter="url(#filter0_d_1087_225)">
<path d="M3.41635 14.3273L24.5 2.1547L45.5836 14.3273V38.6726L24.5 50.8453L3.41635 38.6726V14.3273Z"  stroke-width="2"/>
<path d="M25 32C27.7614 32 30 29.7614 30 27C30 24.2386 27.7614 22 25 22C22.2386 22 20 24.2386 20 27C20 29.7614 22.2386 32 25 32Z"  stroke-width="2" stroke-miterlimit="10"/>
<path d="M30.5 15.5H19.5C16.1863 15.5 13.5 18.1863 13.5 21.5V32.5C13.5 35.8137 16.1863 38.5 19.5 38.5H30.5C33.8137 38.5 36.5 35.8137 36.5 32.5V21.5C36.5 18.1863 33.8137 15.5 30.5 15.5Z"  stroke-width="2" stroke-linecap="round" stroke-linejoin="round"/>
<path d="M31.5 22C32.3284 22 33 21.3284 33 20.5C33 19.6716 32.3284 19 31.5 19C30.6716 19 30 19.6716 30 20.5C30 21.3284 30.6716 22 31.5 22Z" fill="none"/>
</g>
<defs>
<filter id="filter0_d_1087_225" x="0" y="0" width="51" height="58" filterUnits="userSpaceOnUse" color-interpolation-filters="sRGB">
<feFlood flood-opacity="0" result="BackgroundImageFix"/>
<feColorMatrix in="SourceAlpha" type="matrix" values="0 0 0 0 0 0 0 0 0 0 0 0 0 0 0 0 0 0 127 0" result="hardAlpha"/>
<feOffset dx="1" dy="2"/>
<feGaussianBlur stdDeviation="1.5"/>
<feColorMatrix type="matrix" values="0 0 0 0 0 0 0 0 0 0 0 0 0 0 0 0 0 0 0.25 0"/>
<feBlend mode="normal" in2="BackgroundImageFix" result="effect1_dropShadow_1087_225"/>
<feBlend mode="normal" in="SourceGraphic" in2="effect1_dropShadow_1087_225" result="shape"/>
</filter>
</defs>
</svg>
