<svg className="hex-icon" width="51" height="57" viewBox="0 0 51 57" fill="none" xmlns="http://www.w3.org/2000/svg">
<g filter="url(#filter0_d_1087_264)">
<path d="M3.41635 14.3273L24.5 2.1547L45.5836 14.3273V38.6726L24.5 50.8453L3.41635 38.6726V14.3273Z"  stroke-width="2"/>
<path d="M18 27.859L29.2396 37.7499C29.3697 37.8644 29.5272 37.9431 29.6968 37.9783C29.8664 38.0136 30.0423 38.0041 30.2071 37.951C30.372 37.8978 30.5202 37.8027 30.6373 37.675C30.7544 37.5474 30.8363 37.3915 30.875 37.2226L35.5767 16.706C35.6173 16.5287 35.6088 16.3435 35.552 16.1706C35.4952 15.9977 35.3924 15.8436 35.2544 15.7249C35.1165 15.6061 34.9488 15.5273 34.7694 15.4968C34.59 15.4663 34.4057 15.4854 34.2363 15.5519L11.1667 24.615C10.9656 24.694 10.7956 24.8359 10.6819 25.0196C10.5683 25.2033 10.5172 25.4189 10.5363 25.6341C10.5553 25.8492 10.6436 26.0525 10.7878 26.2133C10.932 26.3741 11.1244 26.4839 11.3362 26.5263L18 27.859Z"  stroke-width="2" stroke-linecap="round" stroke-linejoin="round"/>
<path d="M18 27.859L35.014 15.5711"  stroke-width="2" stroke-linecap="round" stroke-linejoin="round"/>
<path d="M23.6134 32.7988L19.7071 36.7051C19.5673 36.8449 19.3891 36.9402 19.1951 36.9788C19.0011 37.0174 18.8 36.9976 18.6173 36.9219C18.4346 36.8462 18.2784 36.718 18.1685 36.5536C18.0587 36.3891 18 36.1958 18 35.998V27.859"  stroke-width="2" stroke-linecap="round" stroke-linejoin="round"/>
</g>
<defs>
<filter id="filter0_d_1087_264" x="0" y="0" width="51" height="58" filterUnits="userSpaceOnUse" color-interpolation-filters="sRGB">
<feFlood flood-opacity="0" result="BackgroundImageFix"/>
<feColorMatrix in="SourceAlpha" type="matrix" values="0 0 0 0 0 0 0 0 0 0 0 0 0 0 0 0 0 0 127 0" result="hardAlpha"/>
<feOffset dx="1" dy="2"/>
<feGaussianBlur stdDeviation="1.5"/>
<feColorMatrix type="matrix" values="0 0 0 0 0 0 0 0 0 0 0 0 0 0 0 0 0 0 0.25 0"/>
<feBlend mode="normal" in2="BackgroundImageFix" result="effect1_dropShadow_1087_264"/>
<feBlend mode="normal" in="SourceGraphic" in2="effect1_dropShadow_1087_264" result="shape"/>
</filter>
</defs>
</svg>
