<svg class="hex-icon" width="51" height="57" viewBox="0 0 51 57" fill="none" xmlns="http://www.w3.org/2000/svg">
<g filter="url(#filter0_d_1083_220)">
<path d="M3.41635 14.3273L24.5 2.1547L45.5836 14.3273V38.6726L24.5 50.8453L3.41635 38.6726V14.3273Z"  stroke-width="2"/>
<path fill-rule="evenodd" clip-rule="evenodd" d="M25.9229 34.0342V27.7665L25.9369 27.7673C26.053 27.7877 26.1771 27.8112 26.3085 27.8382C27.2158 28.0245 28.4549 28.3735 29.7755 29.0218C32.109 30.1674 34.7108 32.2496 36.2051 36.0899H38.333C36.6896 31.2475 33.5051 28.6247 30.6569 27.2265C30.5375 27.1679 30.4188 27.1115 30.3008 27.0571C32.9654 25.969 35.6986 23.4295 36.9556 18H34.8972C33.6723 22.7793 31.2376 24.6148 29.2143 25.3314C28.1236 25.7177 27.094 25.7991 26.3332 25.7818C26.2729 25.7804 26.2144 25.7784 26.1579 25.776C26.0759 25.7622 25.9975 25.7498 25.9229 25.7386V18H23.9229V26.6338V32.8945C23.7363 32.8583 23.5291 32.813 23.3051 32.7564C22.2725 32.4953 20.8989 31.9971 19.5292 31.0525C16.8433 29.2002 14 25.5132 14 18H12C12 26.1098 15.1182 30.44 18.3937 32.699C20.0047 33.81 21.6118 34.3911 22.8148 34.6953C23.4175 34.8477 23.9231 34.9317 24.2835 34.9779C24.4639 35.001 24.6084 35.0147 24.711 35.0227C24.7624 35.0267 24.8033 35.0293 24.8331 35.031L24.8694 35.0328L24.8811 35.0333L24.8853 35.0335L24.887 35.0335C24.8877 35.0336 24.8884 35.0336 24.9229 34.0342L24.8884 35.0336L25.9229 35.0693V34.0342Z" />
</g>
<defs>
<filter id="filter0_d_1083_220" x="0" y="0" width="51" height="58" filterUnits="userSpaceOnUse" color-interpolation-filters="sRGB">
<feFlood flood-opacity="0" result="BackgroundImageFix"/>
<feColorMatrix in="SourceAlpha" type="matrix" values="0 0 0 0 0 0 0 0 0 0 0 0 0 0 0 0 0 0 127 0" result="hardAlpha"/>
<feOffset dx="1" dy="2"/>
<feGaussianBlur stdDeviation="1.5"/>
<feColorMatrix type="matrix" values="0 0 0 0 0 0 0 0 0 0 0 0 0 0 0 0 0 0 0.25 0"/>
<feBlend mode="normal" in2="BackgroundImageFix" result="effect1_dropShadow_1083_220"/>
<feBlend mode="normal" in="SourceGraphic" in2="effect1_dropShadow_1083_220" result="shape"/>
</filter>
</defs>
</svg>
