<svg class="hex-icon" width="45" height="57" viewBox="0 0 48 57" fill="none" xmlns="http://www.w3.org/2000/svg">
<g filter="url(#filter0_d_1083_225)">
<path d="M3.41635 14.3273L24.5 2.1547L45.5836 14.3273V38.6726L24.5 50.8453L3.41635 38.6726V14.3273Z"  stroke-width="2"/>
<path d="M13.5659 32.5817C11.842 29.6757 11.2383 26.2403 11.8681 22.9206C12.4979 19.601 14.3179 16.6254 16.9864 14.5527C19.6548 12.48 22.9881 11.4527 26.3604 11.6637C29.7327 11.8747 32.912 13.3096 35.3012 15.6988C37.6904 18.088 39.1253 21.2672 39.3363 24.6395C39.5474 28.0118 38.5201 31.3451 36.4474 34.0136C34.3747 36.6821 31.3991 38.5021 28.0794 39.1319C24.7598 39.7617 21.3244 39.158 18.4183 37.4342L18.4184 37.434L13.6262 38.8032C13.4279 38.8599 13.2181 38.8625 13.0185 38.8107C12.8189 38.759 12.6368 38.6549 12.491 38.5091C12.3452 38.3632 12.241 38.1811 12.1893 37.9815C12.1375 37.7819 12.1401 37.5721 12.1968 37.3738L13.566 32.5816L13.5659 32.5817Z"  stroke-width="2" stroke-linecap="round" stroke-linejoin="round"/>
<path d="M28.9852 33.5937C27.464 33.5959 25.9574 33.2979 24.5516 32.7167C23.1458 32.1356 21.8685 31.2828 20.7928 30.2072C19.7172 29.1315 18.8644 27.8542 18.2833 26.4484C17.7021 25.0426 17.4041 23.536 17.4063 22.0148C17.4097 20.9441 17.8377 19.9184 18.5964 19.1629C19.355 18.4073 20.3824 17.9835 21.4531 17.9844V17.9844C21.6287 17.9844 21.8013 18.0308 21.9531 18.119C22.105 18.2071 22.2309 18.3338 22.3181 18.4863L24.0078 21.4433C24.1097 21.6217 24.1623 21.8239 24.1601 22.0293C24.1579 22.2347 24.101 22.4358 23.9954 22.6119L22.6384 24.8736C23.3365 26.4229 24.5771 27.6635 26.1264 28.3616V28.3616L28.3881 27.0046C28.5642 26.899 28.7653 26.8421 28.9707 26.8399C29.1761 26.8378 29.3783 26.8903 29.5567 26.9922L32.5137 28.6819C32.6662 28.7691 32.7929 28.895 32.881 29.0469C32.9692 29.1988 33.0156 29.3713 33.0156 29.5469V29.5469C33.0126 30.6164 32.5875 31.6415 31.8327 32.3993C31.078 33.1571 30.0547 33.5863 28.9852 33.5937V33.5937Z"  stroke-width="2" stroke-linecap="round" stroke-linejoin="round"/>
</g>
<defs>
<filter id="filter0_d_1083_225" x="0" y="0" width="51" height="57" filterUnits="userSpaceOnUse" color-interpolation-filters="sRGB">
<feFlood flood-opacity="0" result="BackgroundImageFix"/>
<feColorMatrix in="SourceAlpha" type="matrix" values="0 0 0 0 0 0 0 0 0 0 0 0 0 0 0 0 0 0 127 0" result="hardAlpha"/>
<feOffset dx="1" dy="2"/>
<feGaussianBlur stdDeviation="1.5"/>
<feColorMatrix type="matrix" values="0 0 0 0 0 0 0 0 0 0 0 0 0 0 0 0 0 0 0.25 0"/>
<feBlend mode="normal" in2="BackgroundImageFix" result="effect1_dropShadow_1083_225"/>
<feBlend mode="normal" in="SourceGraphic" in2="effect1_dropShadow_1083_225" result="shape"/>
</filter>
</defs>
</svg>
