<svg width="133" height="127" viewBox="0 0 133 127" fill="none" xmlns="http://www.w3.org/2000/svg">
<g clip-path="url(#clip0_1069_225)">
<g filter="url(#filter0_di_1069_225)">
<path d="M26.2594 86.0792L26.2594 39.8911L66.2594 16.7971L106.259 39.8911L106.259 86.0792L66.2594 109.173L26.2594 86.0792Z" stroke="url(#paint0_linear_1069_225)" stroke-width="6"/>
</g>
<g filter="url(#filter1_di_1069_225)">
<mask id="path-2-inside-1_1069_225" fill="white">
<path fill-rule="evenodd" clip-rule="evenodd" d="M40.7857 77.0622L40.7857 48.2779L34.7857 44.8138L34.7857 80.5316L40.7857 77.0622Z"/>
</mask>
<path d="M40.7857 48.2779L46.7857 48.2779L46.7857 44.8138L43.7857 43.0818L40.7857 48.2779ZM40.7857 77.0622L43.7891 82.2564L46.7857 80.5237L46.7857 77.0622L40.7857 77.0622ZM34.7857 44.8138L37.7857 39.6177L28.7857 34.4215L28.7857 44.8138L34.7857 44.8138ZM34.7857 80.5316L28.7857 80.5316L28.7857 90.9319L37.7891 85.7258L34.7857 80.5316ZM34.7857 48.2779L34.7857 77.0622L46.7857 77.0622L46.7857 48.2779L34.7857 48.2779ZM43.7857 43.0818L37.7857 39.6177L31.7857 50.01L37.7857 53.4741L43.7857 43.0818ZM28.7857 44.8138L28.7857 80.5316L40.7857 80.5316L40.7857 44.8138L28.7857 44.8138ZM37.7891 85.7258L43.7891 82.2564L37.7822 71.8681L31.7822 75.3375L37.7891 85.7258Z" fill="url(#paint1_linear_1069_225)" mask="url(#path-2-inside-1_1069_225)"/>
</g>
</g>
<defs>
<filter id="filter0_di_1069_225" x="22.2594" y="12.333" width="90" height="103.304" filterUnits="userSpaceOnUse" color-interpolation-filters="sRGB">
<feFlood flood-opacity="0" result="BackgroundImageFix"/>
<feColorMatrix in="SourceAlpha" type="matrix" values="0 0 0 0 0 0 0 0 0 0 0 0 0 0 0 0 0 0 127 0" result="hardAlpha"/>
<feOffset dx="1" dy="1"/>
<feGaussianBlur stdDeviation="1"/>
<feColorMatrix type="matrix" values="0 0 0 0 0 0 0 0 0 0 0 0 0 0 0 0 0 0 0.25 0"/>
<feBlend mode="normal" in2="BackgroundImageFix" result="effect1_dropShadow_1069_225"/>
<feBlend mode="normal" in="SourceGraphic" in2="effect1_dropShadow_1069_225" result="shape"/>
<feColorMatrix in="SourceAlpha" type="matrix" values="0 0 0 0 0 0 0 0 0 0 0 0 0 0 0 0 0 0 127 0" result="hardAlpha"/>
<feOffset dx="1" dy="2"/>
<feGaussianBlur stdDeviation="1"/>
<feComposite in2="hardAlpha" operator="arithmetic" k2="-1" k3="1"/>
<feColorMatrix type="matrix" values="0 0 0 0 0 0 0 0 0 0 0 0 0 0 0 0 0 0 0.25 0"/>
<feBlend mode="normal" in2="shape" result="effect2_innerShadow_1069_225"/>
</filter>
<filter id="filter1_di_1069_225" x="33.7856" y="43.8138" width="10" height="39.7178" filterUnits="userSpaceOnUse" color-interpolation-filters="sRGB">
<feFlood flood-opacity="0" result="BackgroundImageFix"/>
<feColorMatrix in="SourceAlpha" type="matrix" values="0 0 0 0 0 0 0 0 0 0 0 0 0 0 0 0 0 0 127 0" result="hardAlpha"/>
<feOffset dx="1" dy="1"/>
<feGaussianBlur stdDeviation="1"/>
<feColorMatrix type="matrix" values="0 0 0 0 0 0 0 0 0 0 0 0 0 0 0 0 0 0 0.25 0"/>
<feBlend mode="normal" in2="BackgroundImageFix" result="effect1_dropShadow_1069_225"/>
<feBlend mode="normal" in="SourceGraphic" in2="effect1_dropShadow_1069_225" result="shape"/>
<feColorMatrix in="SourceAlpha" type="matrix" values="0 0 0 0 0 0 0 0 0 0 0 0 0 0 0 0 0 0 127 0" result="hardAlpha"/>
<feOffset dx="1" dy="2"/>
<feGaussianBlur stdDeviation="1"/>
<feComposite in2="hardAlpha" operator="arithmetic" k2="-1" k3="1"/>
<feColorMatrix type="matrix" values="0 0 0 0 0 0 0 0 0 0 0 0 0 0 0 0 0 0 0.25 0"/>
<feBlend mode="normal" in2="shape" result="effect2_innerShadow_1069_225"/>
</filter>
<linearGradient id="paint0_linear_1069_225" x1="92.3946" y1="10.7664" x2="-51.4562" y2="131.821" gradientUnits="userSpaceOnUse">
<stop stop-color="white"/>
<stop offset="1" stop-color="white" stop-opacity="0.43"/>
</linearGradient>
<linearGradient id="paint1_linear_1069_225" x1="46.1212" y1="45.008" x2="-7.78827" y2="74.5713" gradientUnits="userSpaceOnUse">
<stop stop-color="white"/>
<stop offset="1" stop-color="white" stop-opacity="0.43"/>
</linearGradient>
<clipPath id="clip0_1069_225">
<rect width="87.2015" height="102.625" fill="white" transform="translate(0 75.5188) rotate(-60)"/>
</clipPath>
</defs>
</svg>
