<svg class="skill-alter--img" width="261" height="166" viewBox="30 0 261 166" fill="none" xmlns="http://www.w3.org/2000/svg">
<g clip-path="url(#clip0_1049_329)">
<path d="M105.216 33.093C74 39.9789 65.9324 79.1861 65.7162 81.0931C65.5001 83.0002 59.4323 110.686 116.716 103.093C174 95.5002 162.5 70.5 161.716 68.593C160.932 66.686 139.216 25.5931 105.216 33.093Z"   stroke-width="2"/>
<path fill-rule="evenodd" clip-rule="evenodd" d="M84.5109 82.7431C78.956 85.1952 71.5862 89.8799 64.3895 98.8137L63.6107 98.1863C70.914 89.1202 78.4156 84.3406 84.107 81.8283C86.9516 80.5726 89.3417 79.8843 91.026 79.5096C91.8682 79.3222 92.534 79.2133 92.9922 79.1509C93.2212 79.1198 93.3984 79.1003 93.5197 79.0885C93.5804 79.0826 93.6271 79.0786 93.6594 79.0761L93.6969 79.0732L93.7075 79.0725L93.7106 79.0723L93.7117 79.0723C93.7121 79.0722 93.7124 79.0722 93.7428 79.5713C93.7733 80.0704 93.7735 80.0704 93.7737 80.0703L93.7727 80.0704L93.7666 80.0708L93.7379 80.073C93.7117 80.075 93.671 80.0785 93.6165 80.0838C93.5075 80.0944 93.343 80.1124 93.127 80.1418C92.6949 80.2006 92.0566 80.3048 91.2432 80.4857C89.6164 80.8477 87.2895 81.5166 84.5109 82.7431ZM88.7136 88.7295C84.3047 91.6481 78.5944 96.1176 73.3829 102.322L72.6172 101.679C77.9058 95.3826 83.6955 90.8521 88.1616 87.8957C90.3953 86.417 92.2998 85.3309 93.648 84.6134C94.3221 84.2547 94.8573 83.9881 95.2251 83.8106C95.4091 83.7218 95.5512 83.6554 95.648 83.6108C95.6963 83.5885 95.7334 83.5717 95.7587 83.5604L95.7877 83.5474L95.7954 83.5439L95.7976 83.543L95.7983 83.5427C95.7985 83.5426 95.7987 83.5425 96 84.0002C96.2014 84.4578 96.2015 84.4578 96.2015 84.4578L96.2013 84.4579L96.2001 84.4584L96.1942 84.461L96.169 84.4723C96.1464 84.4825 96.1119 84.4981 96.0662 84.5191C95.9747 84.5613 95.838 84.6252 95.6597 84.7112C95.3029 84.8833 94.7795 85.144 94.1177 85.4962C92.794 86.2006 90.9173 87.2707 88.7136 88.7295ZM96.3665 88.3405C96.05 87.9534 96.0499 87.9535 96.0498 87.9536L96.0494 87.9539L96.048 87.9551L96.0425 87.9595L96.0217 87.9767L95.9412 88.0432C95.8708 88.1017 95.7674 88.1879 95.6347 88.2997C95.3695 88.5232 94.9871 88.8491 94.5172 89.2599C93.5775 90.0812 92.2867 91.2427 90.8813 92.6037C88.0809 95.3156 84.7868 98.8566 82.9327 102.092L83.8003 102.589C85.5798 99.484 88.7857 96.0251 91.5769 93.322C92.9673 91.9756 94.2452 90.8258 95.1753 90.0128C95.6402 89.6064 96.018 89.2844 96.2792 89.0643C96.4097 88.9543 96.5111 88.8697 96.5797 88.8129L96.6574 88.7486L96.6769 88.7326L96.6817 88.7287L96.6828 88.7277L96.683 88.7275L96.3665 88.3405Z" fill="black"/>
<path fill-rule="evenodd" clip-rule="evenodd" d="M142.154 80.3622C148.023 81.9209 156.031 85.4031 164.529 93.1096L165.201 92.3689C156.577 84.5482 148.424 80.9928 142.411 79.3957C139.406 78.5975 136.938 78.2891 135.216 78.1807C134.354 78.1265 133.68 78.1224 133.218 78.132C132.986 78.1368 132.808 78.1451 132.687 78.1523C132.626 78.1559 132.579 78.1593 132.547 78.1618L132.509 78.1648L132.499 78.1658L132.496 78.1661L132.495 78.1662C132.494 78.1662 132.494 78.1662 132.541 78.664C132.589 79.1617 132.589 79.1617 132.588 79.1617L132.589 79.1616L132.596 79.1611L132.624 79.1588C132.65 79.1567 132.691 79.1538 132.746 79.1506C132.855 79.1441 133.02 79.1363 133.238 79.1318C133.674 79.1227 134.321 79.1264 135.153 79.1787C136.816 79.2834 139.219 79.5825 142.154 80.3622ZM138.933 86.9292C143.742 89.1269 150.078 92.6545 156.19 97.9731L156.847 97.2187C150.644 91.8213 144.22 88.2459 139.349 86.0196C136.912 84.9062 134.862 84.1293 133.419 83.6301C132.697 83.3805 132.127 83.2003 131.736 83.0822C131.541 83.0231 131.39 82.9795 131.287 82.9506C131.236 82.9361 131.197 82.9252 131.17 82.9179L131.139 82.9096L131.131 82.9074L131.129 82.9068L131.128 82.9066C131.128 82.9066 131.128 82.9065 131 83.3899C130.872 83.8733 130.872 83.8733 130.872 83.8733L130.872 83.8733L130.874 83.8737L130.88 83.8753L130.906 83.8826C130.93 83.8891 130.967 83.8992 131.015 83.9129C131.112 83.9403 131.257 83.9821 131.447 84.0394C131.826 84.154 132.384 84.3302 133.092 84.5752C134.509 85.0653 136.529 85.8306 138.933 86.9292ZM131.313 87.7342C131.565 87.3027 131.565 87.3027 131.565 87.3028L131.566 87.3031L131.567 87.304L131.573 87.3075L131.597 87.3212L131.687 87.3745C131.765 87.4212 131.881 87.4903 132.029 87.5801C132.326 87.7598 132.754 88.0223 133.282 88.355C134.338 89.0203 135.794 89.967 137.394 91.0929C140.582 93.3366 144.386 96.3225 146.721 99.2303L145.941 99.8563C143.7 97.0656 139.996 94.147 136.818 91.9107C135.236 90.7967 133.795 89.8596 132.749 89.2011C132.227 88.8719 131.804 88.6125 131.511 88.4357C131.365 88.3473 131.252 88.2795 131.175 88.234L131.089 88.1826L131.067 88.1698L131.062 88.1667L131.06 88.1659L131.06 88.1658L131.313 87.7342Z" fill="black"/>
<path fill-rule="evenodd" clip-rule="evenodd" d="M100.768 67.1388C101.967 65.6537 102.613 63.995 102.501 62.5381L103.498 62.4614C103.633 64.209 102.885 66.0616 101.644 67.6438L104 70L103.293 70.7071L100.99 68.4044C99.9275 69.5363 98.5903 70.5068 97.1037 71.1556L99 74L98.1679 74.5547L96.1679 71.5547L96.2913 71.4724L96.2908 71.4726C95.0516 71.8989 93.7246 72.0984 92.3812 71.9816L91.9961 75.062L91.0038 74.938L91.3914 71.8373C90.7876 71.7131 90.1839 71.5208 89.5869 71.2526C89.0043 70.9908 88.432 70.6585 87.875 70.25L86 74L85.1055 73.5528L87.0796 69.6046C85.7873 68.4503 84.5959 66.846 83.5741 64.7155L84.4758 64.283C86.057 67.58 88.0085 69.4471 89.9967 70.3404C91.984 71.2333 94.0668 71.1801 95.9655 70.527C97.8696 69.872 99.5733 68.6172 100.768 67.1388Z" fill="black"/>
<path fill-rule="evenodd" clip-rule="evenodd" d="M135.981 67.0419C137.456 65.8298 138.424 64.3358 138.608 62.8862L139.6 63.0125C139.379 64.7512 138.272 66.4146 136.737 67.7136L138.569 70.4972L137.733 71.0469L135.943 68.3264C134.674 69.2204 133.168 69.9008 131.581 70.236L132.864 73.4049L131.937 73.7801L130.584 70.438L130.722 70.3821L130.721 70.3823C129.421 70.5495 128.081 70.4769 126.789 70.0911L125.79 73.0304L124.843 72.7086L125.849 69.75C125.283 69.5063 124.73 69.1961 124.2 68.8128C123.682 68.4388 123.188 67.9977 122.725 67.4851L120.132 70.7792L119.346 70.1605L122.077 66.6923C121.044 65.3008 120.201 63.489 119.631 61.196L120.601 60.9546C121.484 64.503 123.018 66.7257 124.785 68.0022C126.551 69.2781 128.602 69.6466 130.593 69.3904C132.59 69.1335 134.512 68.2487 135.981 67.0419Z" fill="black"/>
<path d="M123.5 83.5C122.5 90 117 90 115 82M115 82C119 79 119 76.5 118.5 74.5C118.5 74.5 114.5 73.9287 110.5 74.5C107 75 112 82 115 82ZM115 82C111 94.5 107 88.5 106 85.5"  />
<path fill-rule="evenodd" clip-rule="evenodd" d="M63.2629 30.5599L63.1564 30.6172L63.0879 30.7168C61.6038 32.8756 61.3825 36.1418 61.7934 39.6967C62.2075 43.279 63.2794 47.2772 64.5164 51.0031C65.7545 54.7327 67.1644 58.2084 68.2641 60.7504C68.8141 62.0219 69.2869 63.0608 69.6225 63.7824C69.7903 64.1433 69.9239 64.4248 70.0156 64.6165C70.0615 64.7123 70.0969 64.7857 70.1209 64.8353L70.1483 64.8917L70.1554 64.9062L70.1573 64.91L70.1578 64.911C70.1579 64.9112 70.158 64.9114 70.6068 64.6911C71.0557 64.4709 71.0557 64.4708 71.0556 64.4707L71.0553 64.47L71.0537 64.4667L71.0471 64.4533L71.0208 64.3991C70.9974 64.3509 70.9627 64.2791 70.9176 64.1848C70.8274 63.9962 70.6954 63.718 70.5292 63.3607C70.1969 62.6461 69.7278 61.6155 69.1819 60.3534C68.0896 57.8283 66.6915 54.3812 65.4654 50.688C64.2381 46.9911 63.1896 43.0666 62.7868 39.5818C62.3882 36.1335 62.6367 33.2318 63.8439 31.3848C64.5577 31.028 65.5051 30.8158 66.6505 30.7386C67.8491 30.6577 69.2319 30.7266 70.7296 30.909C73.7254 31.2739 77.1319 32.0867 80.3526 33.0135C83.5704 33.9396 86.588 34.9751 88.8022 35.7796C89.9089 36.1818 90.8141 36.5259 91.4421 36.7692C91.7561 36.8909 92.0007 36.9874 92.1666 37.0534L92.2815 37.0992L92.3552 37.1288L92.403 37.148L92.4148 37.1528L92.4177 37.154L92.4184 37.1542C92.4185 37.1543 92.4185 37.1543 92.6068 36.6911C92.7952 36.2279 92.795 36.2279 92.7948 36.2278L92.7939 36.2274L92.7906 36.2261L92.7779 36.2209L92.7284 36.201C92.6848 36.1835 92.6203 36.1576 92.5361 36.1241C92.3677 36.0572 92.1203 35.9596 91.8034 35.8368C91.1698 35.5912 90.2579 35.2446 89.1437 34.8398C86.916 34.0303 83.8756 32.9868 80.6292 32.0525C77.3857 31.1191 73.9217 30.2904 70.8505 29.9163C69.3148 29.7293 67.8651 29.6544 66.5832 29.7408C65.3064 29.827 64.1629 30.0752 63.2629 30.5599ZM66.8999 35.2999C66.986 35.1851 67.1807 35.0528 67.5742 34.9606C67.9594 34.8704 68.4721 34.8336 69.1033 34.8537C70.3637 34.8937 72.0042 35.1565 73.8447 35.57C77.52 36.3957 81.906 37.8023 85.4606 39.1265L85.8097 38.1894C82.229 36.8555 77.7975 35.4331 74.0639 34.5943C72.2001 34.1756 70.4884 33.8972 69.1351 33.8542C68.4595 33.8327 67.8501 33.8689 67.3461 33.987C66.8504 34.1032 66.3889 34.3146 66.0999 34.6999C65.8278 35.0627 65.7001 35.5911 65.6415 36.1556C65.581 36.7391 65.5871 37.4436 65.644 38.2261C65.7579 39.7929 66.0798 41.73 66.5287 43.7529C67.4248 47.7918 68.8448 52.2526 70.1899 54.8854L71.0804 54.4305C69.7903 51.9052 68.3926 47.537 67.5049 43.5363C67.0619 41.5395 66.7504 39.6542 66.6413 38.1536C66.5867 37.4023 66.584 36.7619 66.6362 36.2588C66.6903 35.7368 66.797 35.437 66.8999 35.2999Z" fill="black"/>
<path fill-rule="evenodd" clip-rule="evenodd" d="M156.165 23.1505L156.28 23.1868L156.366 23.2717C158.23 25.1125 159.062 28.2787 159.328 31.8473C159.596 35.4436 159.296 39.5721 158.782 43.4642C158.268 47.3602 157.538 51.0392 156.936 53.7427C156.635 55.095 156.367 56.2044 156.173 56.9763C156.076 57.3623 155.998 57.6639 155.944 57.8695C155.917 57.9722 155.896 58.051 155.882 58.1042L155.865 58.1647L155.861 58.1803L155.86 58.1843L155.86 58.1854C155.86 58.1857 155.86 58.1859 155.377 58.054C154.895 57.9222 154.895 57.9222 154.895 57.922L154.895 57.9212L154.896 57.9177L154.9 57.9033L154.916 57.8451C154.93 57.7935 154.95 57.7164 154.977 57.6153C155.03 57.4131 155.107 57.115 155.203 56.7328C155.395 55.9684 155.662 54.8679 155.96 53.5256C156.558 50.84 157.282 47.1914 157.791 43.3334C158.3 39.4716 158.591 35.4198 158.331 31.9216C158.073 28.4598 157.283 25.6568 155.749 24.0701C154.981 23.8541 154.011 23.824 152.871 23.9637C151.679 24.1099 150.334 24.4379 148.897 24.899C146.024 25.8213 142.831 27.2608 139.843 28.7774C136.857 30.2926 134.088 31.8777 132.065 33.0846C131.053 33.6879 130.229 34.1962 129.658 34.5535C129.373 34.7321 129.151 34.8729 129 34.9689L128.896 35.0355L128.829 35.0784L128.786 35.1063L128.775 35.1133L128.773 35.115L128.772 35.1154C128.772 35.1154 128.772 35.1155 128.5 34.696C128.228 34.2765 128.228 34.2765 128.228 34.2763L128.229 34.2758L128.232 34.2739L128.243 34.2664L128.288 34.2375C128.328 34.2121 128.386 34.1746 128.462 34.1258C128.615 34.0284 128.84 33.886 129.128 33.7057C129.704 33.3452 130.534 32.8332 131.552 32.2258C133.588 31.0115 136.378 29.4143 139.39 27.8856C142.4 26.3583 145.646 24.8923 148.592 23.9468C150.065 23.474 151.475 23.1275 152.75 22.9712C154.02 22.8154 155.19 22.844 156.165 23.1505ZM153.485 28.4904C153.379 28.3939 153.163 28.3007 152.759 28.2842C152.364 28.268 151.853 28.3284 151.237 28.467C150.007 28.7436 148.445 29.3104 146.715 30.063C143.261 31.5658 139.218 33.7729 135.977 35.7426L135.457 34.8879C138.723 32.9039 142.807 30.6727 146.316 29.1461C148.068 28.3839 149.697 27.7883 151.018 27.4913C151.677 27.3431 152.283 27.2639 152.8 27.285C153.309 27.3058 153.802 27.4266 154.158 27.7505C154.493 28.0557 154.718 28.5506 154.882 29.094C155.051 29.6556 155.178 30.3487 155.269 31.1279C155.453 32.6882 155.501 34.6512 155.441 36.7225C155.321 40.8579 154.766 45.5062 153.941 48.3451L152.981 48.066C153.772 45.343 154.323 40.7897 154.441 36.6935C154.501 34.649 154.452 32.7387 154.276 31.2444C154.189 30.4963 154.071 29.8668 153.925 29.3826C153.773 28.8801 153.612 28.6058 153.485 28.4904Z" fill="black"/>
</g>
<path d="M99.4998 35C102 31.4999 133.5 -5.50005 194 10.5C208 14.2025 245 41 237 76.5C231.028 103 187 101.5 163.5 101.5C156.5 101.5 157.25 87.5 168.5 84.5C176 82.5 178.721 81.5446 177.5 73C174.786 54 194 46 205.082 48.5068"   stroke-width="2"/>
<path d="M159.5 94.9999C159.5 94.9999 157 93.5 146.5 94.9999"  stroke-width="2"/>
<path d="M119.5 25.5C121.5 23 123 22.5 125 21"  />
<path d="M129 19.4999C131 16.9999 131.5 17.9999 133.5 16.4999M128 23.9999C130 21.4999 132.5 20.9999 132.5 20.9999M138 15.4999C140 12.9999 146 11.9999 146 11.9999M137 19.9999C139 17.4999 145 16.4999 145 16.4999M152.5 10.4999C158 8.99992 163 10.4999 163 10.4999M149 14C154.5 12.5 159.5 14 159.5 14M157 18C162.5 16.5 167.5 19.9999 167.5 19.9999M169 14C174.5 12.5 177 14 177 14M182.5 14C187.5 14 190.5 16.4999 190.5 16.4999M165 31C170 31 173.5 31 173.5 31M166.5 39C171.5 39 174.5 40.5 174.5 40.5M167.5 50.5C172.5 50.5 175 49 175 49M198 20.9999C203 20.9999 205.5 23.9999 205.5 23.9999M184.5 23.9999C189.5 23.9999 197 30 197 30M209.5 31C216 36 216.5 36.5 216.5 36.5M223.5 49C227.5 55 228 57.5 228 57.5M232 55.5C234 60.5 233 63.5 233 63.5M215.5 53C217.5 58 216.5 58.5 216.5 58.5M205.5 40.5C210.5 42 211.5 43.5 211.5 43.5M188.5 39C191.5 39 193.5 42 193.5 42M200.5 55.5C195 58.5 193.5 61.5 193.5 61.5M244 82C248 88 247.5 92 247.5 92M246 117.5C246 123.5 244 127 244 127M249.5 108C249.5 112.5 249.5 114 249.5 114M226 151.5C221.5 156.5 221.5 158 221.5 158"  />
<path d="M252.5 99C257.969 132.5 228 147.5 223 161.5C218.5 169 202.5 161.5 221.626 140C221.626 140 241 123 240 105C240 87.1971 235.768 81 235.768 81C235.768 81 238.5 75.5 238.5 69C238.5 69 248.5 74.5 252.5 99Z"   stroke-width="2"/>
<path d="M86 103.5C86 103.5 97 106 115 104C115 104 101 115 92.5 115C84 115 86 103.5 86 103.5ZM86 103.5C86 103.5 74.5001 108.222 69 107C63.5 105.778 69 95.5 69 95.5C80.5 104 86 103.5 86 103.5Z"   stroke-width="2"/>
<path d="M122.001 45.9892C122.118 44.9954 122.235 44.0015 123.08 42.0723"   stroke-linecap="round"/>
<path d="M109.71 55.0261C109.71 54.0261 109.71 53.0261 109.21 51.0261"   stroke-linecap="round"/>
<path d="M104.71 45.0261C104.71 44.0261 104.71 43.0261 104.21 41.0261"   stroke-linecap="round"/>
<path d="M109.5 42.5C109.5 41.5 109.5 40.5 109 38.5"   stroke-linecap="round"/>
<path d="M107.71 48.0261C107.71 47.0261 107.71 46.0261 107.21 44.0261"   stroke-linecap="round"/>
<path d="M113.71 45.0261C113.71 44.0261 113.71 43.0261 113.21 41.0261"   stroke-linecap="round"/>
<path d="M111.71 50.0261C111.71 49.0261 111.71 48.0261 111.21 46.0261"   stroke-linecap="round"/>
<path d="M114.71 57.0261C114.71 56.0261 114.71 55.0261 114.21 53.0261"   stroke-linecap="round"/>
<path d="M119.001 50.989C119.118 49.9951 119.235 49.0013 120.08 47.072"   stroke-linecap="round"/>
<path d="M118.001 44.989C118.118 43.9951 118.235 43.0013 119.08 41.072"   stroke-linecap="round"/>
<defs>
<clipPath id="clip0_1049_329">
<rect width="136" height="90" fill="white" transform="translate(51 17)"/>
</clipPath>
</defs>
</svg>
